name Walk1.mot
datacolumns 19
datarows 17
range 3.99300000 4.00900000
endheader

                time	   L_ground_force_vx	   L_ground_force_vy	   L_ground_force_vz	   L_ground_force_px	   L_ground_force_py	   L_ground_force_pz	   R_ground_force_vx	   R_ground_force_vy	   R_ground_force_vz	   R_ground_force_px	   R_ground_force_py	   R_ground_force_pz	   L_ground_torque_x	   L_ground_torque_y	   L_ground_torque_z	   R_ground_torque_x	   R_ground_torque_y	   R_ground_torque_z	
          3.99300000	          0.05114943	          0.13253949	         -0.00159467	         -0.00020453	          0.00000000	         -0.00007698	        -16.28340170	        667.74669049	        -36.88561272	          0.32700419	          0.00000000	          0.09598488	          0.00000000	          0.00078272	          0.00000000	          0.00000000	          6.19451391	          0.00000000	
          3.99400000	          0.04869554	          0.12450343	         -0.00166582	         -0.00019971	          0.00000000	         -0.00007537	        -15.91843188	        665.91831937	        -36.78251080	          0.32715126	          0.00000000	          0.09600562	          0.00000000	          0.00074812	          0.00000000	          0.00000000	          6.11235955	          0.00000000	
          3.99500000	          0.04626627	          0.11668016	         -0.00172462	         -0.00019454	          0.00000000	         -0.00007361	        -15.55919569	        664.10008129	        -36.68509700	          0.32730257	          0.00000000	          0.09602817	          0.00000000	          0.00071363	          0.00000000	          0.00000000	          6.03158357	          0.00000000	
          3.99600000	          0.04386873	          0.10908115	         -0.00177190	         -0.00018908	          0.00000000	         -0.00007173	        -15.20558031	        662.29266754	        -36.59311889	          0.32745804	          0.00000000	          0.09605252	          0.00000000	          0.00067937	          0.00000000	          0.00000000	          5.95216449	          0.00000000	
          3.99700000	          0.04150926	          0.10171605	         -0.00180847	         -0.00018337	          0.00000000	         -0.00006973	        -14.85746560	        660.49676904	        -36.50631107	          0.32761753	          0.00000000	          0.09607860	          0.00000000	          0.00064546	          0.00000000	          0.00000000	          5.87407909	          0.00000000	
          3.99800000	          0.03919355	          0.09459279	         -0.00183510	         -0.00017745	          0.00000000	         -0.00006764	        -14.51472527	        658.71307154	        -36.42439712	          0.32778095	          0.00000000	          0.09610638	          0.00000000	          0.00061200	          0.00000000	          0.00000000	          5.79730227	          0.00000000	
          3.99900000	          0.03692663	          0.08771775	         -0.00185253	         -0.00017136	          0.00000000	         -0.00006547	        -14.17722778	        656.94225068	        -36.34709142	          0.32794814	          0.00000000	          0.09613581	          0.00000000	          0.00057906	          0.00000000	          0.00000000	          5.72180679	          0.00000000	
          4.00000000	          0.03471292	          0.08109578	         -0.00186148	         -0.00016514	          0.00000000	         -0.00006324	        -13.84483711	        655.18496811	        -36.27410099	          0.32811897	          0.00000000	          0.09616685	          0.00000000	          0.00054674	          0.00000000	          0.00000000	          5.64756324	          0.00000000	
          4.00100000	          0.03255625	          0.07473040	         -0.00186263	         -0.00015883	          0.00000000	         -0.00006096	        -13.51741306	        653.44186926	        -36.20512762	          0.32829329	          0.00000000	          0.09619944	          0.00000000	          0.00051511	          0.00000000	          0.00000000	          5.57454005	          0.00000000	
          4.00200000	          0.03045993	          0.06862384	         -0.00185664	         -0.00015245	          0.00000000	         -0.00005864	        -13.19481139	        651.71358281	        -36.13987025	          0.32847095	          0.00000000	          0.09623353	          0.00000000	          0.00048421	          0.00000000	          0.00000000	          5.50270383	          0.00000000	
          4.00300000	          0.02842674	          0.06277717	         -0.00184415	         -0.00014604	          0.00000000	         -0.00005630	        -12.87688379	        650.00072106	        -36.07802733	          0.32865180	          0.00000000	          0.09626908	          0.00000000	          0.00045411	          0.00000000	          0.00000000	          5.43201968	          0.00000000	
          4.00400000	          0.02645901	          0.05719039	         -0.00182575	         -0.00013963	          0.00000000	         -0.00005394	        -12.56347818	        648.30388011	        -36.01929906	          0.32883568	          0.00000000	          0.09630602	          0.00000000	          0.00042486	          0.00000000	          0.00000000	          5.36245157	          0.00000000	
          4.00500000	          0.02455860	          0.05186251	         -0.00180202	         -0.00013323	          0.00000000	         -0.00005158	        -12.25443898	        646.62363918	        -35.96338907	          0.32902245	          0.00000000	          0.09634431	          0.00000000	          0.00039648	          0.00000000	          0.00000000	          5.29396256	          0.00000000	
          4.00600000	          0.02272697	          0.04679165	         -0.00177350	         -0.00012687	          0.00000000	         -0.00004923	        -11.94960780	        644.96055897	        -35.91000553	          0.32921198	          0.00000000	          0.09638390	          0.00000000	          0.00036903	          0.00000000	          0.00000000	          5.22651486	          0.00000000	
          4.00700000	          0.02096519	          0.04197513	         -0.00174070	         -0.00012057	          0.00000000	         -0.00004689	        -11.64882431	        643.31517947	        -35.85886172	          0.32940411	          0.00000000	          0.09642473	          0.00000000	          0.00034251	          0.00000000	          0.00000000	          5.16006974	          0.00000000	
          4.00800000	          0.01927398	          0.03740951	         -0.00170411	         -0.00011436	          0.00000000	         -0.00004457	        -11.35192739	        641.68801741	        -35.80967627	          0.32959871	          0.00000000	          0.09646676	          0.00000000	          0.00031695	          0.00000000	          0.00000000	          5.09458742	          0.00000000	
          4.00900000	          0.01765374	          0.03309072	         -0.00166419	         -0.00010824	          0.00000000	         -0.00004228	        -11.05875647	        640.07956359	        -35.76217363	          0.32979565	          0.00000000	          0.09650992	          0.00000000	          0.00029237	          0.00000000	          0.00000000	          5.03002689	          0.00000000	
